<?xml version="1.0" encoding="UTF-8" standalone="no"?>
<!DOCTYPE svg PUBLIC "-//W3C//DTD SVG 1.1//EN" "http://www.w3.org/Graphics/SVG/1.1/DTD/svg11.dtd">
<svg width="100%" height="100%" viewBox="0 0 43 43" version="1.1" xmlns="http://www.w3.org/2000/svg" xmlns:xlink="http://www.w3.org/1999/xlink" xml:space="preserve" xmlns:serif="http://www.serif.com/" style="fill-rule:evenodd;clip-rule:evenodd;stroke-linejoin:round;stroke-miterlimit:2;">
    <g transform="matrix(1.33333,0,0,1.33333,0,0)">
        <g transform="matrix(0.868009,0,0,0.930073,1.12965,1.12163)">
            <path d="M16,0C7.2,0 0,7.2 0,16C0,24.8 7.2,32 16,32C24.8,32 32,24.8 32,16C32,7.2 24.8,0 16,0ZM20.2,10.7L18.7,10.7C17.5,10.7 17.3,11.3 17.3,12.1L17.3,13.9L20.1,13.9L19.7,16.7L17.3,16.7L17.3,24L14.4,24L14.4,16.7L11.9,16.7L11.9,13.9L14.4,13.9L14.4,11.8C14.3,9.3 15.8,8 18,8C19,8 19.9,8.1 20.2,8.1L20.2,10.7Z" style="fill:none;fill-rule:nonzero;stroke:rgb(204,222,88);stroke-width:2.22px;"/>
        </g>
    </g>
</svg>
